<svg height="88" viewBox="0 0 317 88" width="317" xmlns="http://www.w3.org/2000/svg"><g fill="#ebebeb"><path d="m67.8214286 86.6761364h25.1785714l-15.4285714-75.6761364h-19.1785715l-11.8928571 30.6590909-12-30.6590909h-19.0714286l-15.4285714 75.6761364h25.5l5.0357143-30.7670455 13.3928571 31.0909091h5.0357143l13.6071429-31.4147727z"/><path d="m153 31.9786408h-22.728281v5.2194175c-3.359211-4.1320389-7.826248-6.1980583-13.401109-6.1980583-4.645718 0-8.612446 1.2504854-11.900185 3.7514563s-5.7714108 5.8537217-7.4510165 10.0582524c-1.6796057 4.2045308-2.5194085 8.9165049-2.5194085 14.1359224 0 5.1469255.8398028 9.8588996 2.5194085 14.1359223s4.1632775 7.6660194 7.4510165 10.1669903 7.254467 3.7514563 11.900185 3.7514563c5.431916 0 9.898953-2.0660194 13.401109-6.1980583v5.5456311h22.728281zm-24.336414 30.9359223c-1.072089 1.1236246-2.430068 1.6854369-4.073937 1.6854369-1.64387 0-2.98398-.5436893-4.020333-1.631068-1.036352-1.0873786-1.554529-2.4284789-1.554529-4.0233009 0-1.6673139.518177-3.0627832 1.554529-4.1864078 1.036353-1.1236246 2.376463-1.6854369 4.020333-1.6854369 1.643869 0 3.001848.5618123 4.073937 1.6854369s1.608133 2.5190939 1.608133 4.1864078c0 1.5223301-.536044 2.8453074-1.608133 3.968932z"/><path d="m165.836066 23.1444867c2.557377 2.5551331 5.612021 3.8326996 9.163934 3.8326996 3.622951 0 6.695355-1.2598225 9.217213-3.7794677 2.521858-2.5196451 3.782787-5.5893536 3.782787-9.2091254 0-3.6907478-1.243169-6.7782003-3.729508-9.26235746s-5.576503-3.72623574-9.270492-3.72623574c-3.622951 0-6.695355 1.25982256-9.217213 3.77946768s-3.782787 5.58935362-3.782787 9.20912552c0 3.5487959 1.278689 6.6007604 3.836066 9.1558935zm-2.024591 61.8555133h22.590164v-53.2319392h-22.590164z"/><path d="m252 0h-22.272222v37.5632754c-3.307408-4.1017369-7.705556-6.1526054-13.194445-6.1526054-4.574074 0-8.479629 1.2413151-11.716666 3.7239454s-5.682408 5.810794-7.336111 9.9844913c-1.653704 4.1736973-2.480556 8.8511166-2.480556 14.0322581 0 5.1091811.826852 9.7866005 2.480556 14.032258 1.653703 4.2456576 4.099074 7.6098015 7.336111 10.0924318s7.142592 3.7239454 11.716666 3.7239454c5.348148 0 9.746297-2.0508685 13.194445-6.1526055v5.5049628h22.272222zm-23.855556 63.0911911c-1.055555 1.1153846-2.392592 1.6730769-4.011111 1.6730769-1.618518 0-2.937963-.5397022-3.958333-1.6191067s-1.530556-2.41067-1.530556-3.9937965c0-1.6550869.510186-3.0403226 1.530556-4.1557072s2.339815-1.673077 3.958333-1.673077c1.618519 0 2.955556.5576924 4.011111 1.673077 1.055556 1.1153846 1.583334 2.5006203 1.583334 4.1557072 0 1.5111662-.527778 2.8244417-1.583334 3.9398263z"/><path d="m273.79206 84.0988593c4.310019 2.6007605 9.194707 3.9011407 14.654065 3.9011407 5.459357 0 10.362004-1.3003802 14.707939-3.9011407 4.345936-2.6007604 7.740076-6.068441 10.18242-10.4030418s3.663516-9.0665399 3.663516-14.1958175-1.221172-9.8612167-3.663516-14.1958175-5.836484-7.8022814-10.18242-10.4030418c-4.345935-2.6007605-9.248582-3.9011407-14.707939-3.9011407-5.459358 0-10.344046 1.3003802-14.654065 3.9011407-4.310018 2.6007604-7.6862 6.068441-10.128544 10.4030418s-3.663516 9.0665399-3.663516 14.1958175 1.221172 9.8612167 3.663516 14.1958175 5.818526 7.8022814 10.128544 10.4030418zm18.533082-20.7519011c-1.005671 1.0475285-2.298677 1.5712928-3.879017 1.5712928-1.508507 0-2.765596-.5418251-3.771267-1.6254753s-1.508506-2.3840305-1.508506-3.9011407c0-1.3726236.502835-2.6007605 1.508506-3.6844107s2.26276-1.6254753 3.771267-1.6254753c1.508506 0 2.783554.5237643 3.825142 1.5712928 1.041587 1.0475285 1.562381 2.2937263 1.562381 3.7385932 0 1.5893536-.502835 2.9077947-1.508506 3.9553232z"/></g></svg>